<svg width="17" height="20" viewBox="0 0 17 20" fill="none" xmlns="http://www.w3.org/2000/svg">
<path d="M8.52539 9.9751C10.8208 9.9751 12.6816 8.11428 12.6816 5.81885C12.6816 3.52341 10.8208 1.6626 8.52539 1.6626C6.22996 1.6626 4.36914 3.52341 4.36914 5.81885C4.36914 8.11428 6.22996 9.9751 8.52539 9.9751Z" stroke="white" stroke-width="1.5"/>
<path d="M12.6814 11.6377H12.974C13.5817 11.6379 14.1684 11.8599 14.624 12.2622C15.0795 12.6645 15.3724 13.2192 15.4478 13.8222L15.7728 16.419C15.802 16.653 15.7812 16.8905 15.7116 17.1157C15.6421 17.341 15.5254 17.5489 15.3693 17.7256C15.2133 17.9023 15.0215 18.0438 14.8065 18.1407C14.5916 18.2377 14.3585 18.2877 14.1228 18.2877H2.92751C2.69175 18.2877 2.45868 18.2377 2.24376 18.1407C2.02884 18.0438 1.83699 17.9023 1.68095 17.7256C1.5249 17.5489 1.40822 17.341 1.33866 17.1157C1.2691 16.8905 1.24825 16.653 1.27748 16.419L1.60167 13.8222C1.67706 13.2189 1.97026 12.6639 2.42613 12.2616C2.882 11.8594 3.46913 11.6375 4.07713 11.6377H4.3689" stroke="white" stroke-width="1.5" stroke-linecap="round" stroke-linejoin="round"/>
</svg>
