<svg width="17" height="15" viewBox="0 0 17 15" fill="none" xmlns="http://www.w3.org/2000/svg">
<path d="M16.7475 2.49703C16.156 2.75911 15.5206 2.9362 14.8527 3.01624C15.5419 2.60384 16.0575 1.95478 16.3034 1.19016C15.6558 1.57477 14.9471 1.8455 14.2081 1.99057C13.7111 1.45993 13.0529 1.10822 12.3355 0.990032C11.6181 0.871846 10.8818 0.993799 10.2409 1.33696C9.59996 1.68012 9.09024 2.22529 8.79088 2.88782C8.49152 3.55035 8.41928 4.29319 8.58535 5.00099C7.2733 4.93511 5.98976 4.59409 4.81803 4.00005C3.6463 3.40601 2.61258 2.57223 1.78394 1.55282C1.5006 2.04157 1.33769 2.60824 1.33769 3.21174C1.33737 3.75503 1.47116 4.28999 1.72719 4.76917C1.98321 5.24835 2.35355 5.65693 2.80535 5.95866C2.28138 5.94198 1.76897 5.8004 1.31077 5.5457V5.5882C1.31072 6.35018 1.57429 7.08872 2.05678 7.67849C2.53926 8.26826 3.21093 8.67294 3.95781 8.82386C3.47174 8.95541 2.96214 8.97479 2.46748 8.88053C2.67821 9.53617 3.08868 10.1095 3.64145 10.5203C4.19421 10.931 4.86159 11.1587 5.55015 11.1713C4.38128 12.0889 2.93773 12.5866 1.45173 12.5844C1.1885 12.5845 0.925492 12.5691 0.664062 12.5384C2.17244 13.5082 3.9283 14.0229 5.72156 14.0209C11.792 14.0209 15.1105 8.99316 15.1105 4.63266C15.1105 4.49099 15.107 4.34791 15.1006 4.20624C15.7461 3.73943 16.3033 3.16137 16.7461 2.49916L16.7475 2.49703Z" fill="white"/>
</svg>
